<?xml version="1.0" standalone="no"?>
<!DOCTYPE svg PUBLIC "-//W3C//DTD SVG 20010904//EN"
 "http://www.w3.org/TR/2001/REC-SVG-20010904/DTD/svg10.dtd">
<svg version="1.0" xmlns="http://www.w3.org/2000/svg"
 width="1200.000000pt" height="1200.000000pt" viewBox="0 0 1200.000000 1200.000000"
 preserveAspectRatio="xMidYMid meet">
<metadata>
Created by potrace 1.11, written by Peter Selinger 2001-2013
</metadata>
<g transform="translate(0.000000,1200.000000) scale(0.100000,-0.100000)"
fill="#000000" stroke="none">
<path d="M7181 10664 c-1 -7 -16 -11 -36 -10 -19 1 -35 -2 -35 -6 0 -5 -5 -8
-11 -8 -5 0 -8 4 -4 9 3 6 -7 6 -26 1 -18 -5 -36 -7 -40 -4 -5 3 -9 0 -9 -7 0
-8 -4 -8 -15 1 -8 7 -15 9 -15 4 0 -8 -43 -14 -112 -18 -9 0 -14 -4 -11 -9 3
-5 -4 -6 -16 -2 -14 4 -21 2 -21 -6 0 -7 -3 -9 -7 -6 -3 4 -13 1 -21 -6 -13
-10 -14 -9 -7 3 8 13 7 13 -8 1 -13 -10 -17 -10 -17 -1 0 9 -4 9 -17 -1 -15
-12 -16 -12 -8 1 8 13 6 13 -7 2 -9 -8 -25 -12 -35 -11 -10 2 -32 -4 -49 -14
-17 -9 -34 -13 -38 -10 -3 4 -6 1 -6 -5 0 -6 -9 -9 -20 -7 -11 2 -20 1 -20 -3
0 -4 -9 -13 -21 -20 -12 -8 -18 -9 -14 -3 3 6 1 11 -4 11 -6 0 -11 -5 -11 -12
0 -6 -3 -8 -7 -5 -3 4 -12 2 -19 -3 -6 -6 -16 -10 -20 -9 -15 3 -44 -13 -39
-21 3 -4 -9 -10 -26 -14 -17 -3 -28 -9 -26 -13 2 -5 -4 -16 -15 -25 -10 -10
-18 -16 -18 -13 0 3 -6 0 -14 -7 -8 -7 -12 -16 -9 -20 2 -4 -1 -17 -7 -28 -8
-15 -8 -20 1 -20 8 0 9 -4 0 -13 -7 -9 -7 -17 -1 -23 7 -7 4 -17 -10 -29 -11
-10 -20 -13 -20 -7 0 7 -5 12 -11 12 -5 0 -7 -5 -3 -11 5 -8 1 -8 -14 0 -15 8
-23 8 -28 0 -4 -8 -9 -7 -15 2 -5 8 -21 13 -40 11 -23 -3 -29 0 -23 9 5 9 2
11 -9 6 -10 -3 -17 -2 -17 4 0 6 -4 7 -10 4 -5 -3 -10 0 -10 7 0 9 -3 9 -10
-2 -8 -12 -10 -12 -10 -1 0 8 -3 11 -7 8 -3 -4 -15 1 -26 10 -11 10 -17 12
-13 6 4 -7 2 -13 -3 -13 -6 0 -11 4 -11 9 0 5 -7 12 -16 15 -10 4 -13 2 -8 -7
5 -8 2 -7 -9 2 -9 7 -17 10 -17 5 0 -5 -5 -2 -11 6 -7 10 -12 11 -15 3 -4 -8
-12 -8 -32 3 -20 10 -28 11 -34 1 -6 -9 -8 -8 -8 3 0 12 -2 12 -9 1 -6 -9 -11
-10 -15 -2 -4 6 -12 9 -17 6 -5 -4 -9 -2 -9 2 0 5 -9 9 -20 9 -11 0 -20 -4
-20 -8 0 -5 -8 -4 -19 1 -10 6 -21 7 -25 4 -9 -10 -36 -13 -36 -4 0 4 -9 7
-20 7 -11 0 -20 -3 -20 -6 0 -3 -9 -6 -20 -6 -11 0 -20 4 -20 9 0 5 -7 4 -14
-3 -8 -6 -25 -10 -38 -9 -13 2 -29 0 -35 -4 -7 -5 -13 -5 -13 0 0 4 -5 1 -10
-7 -5 -8 -10 -10 -10 -5 0 11 -39 13 -56 2 -6 -3 -25 -5 -43 -5 -18 1 -36 -5
-41 -12 -6 -10 -8 -10 -12 0 -3 9 -8 8 -20 -4 -20 -19 -32 -21 -21 -3 4 6 -6
4 -21 -7 -17 -11 -25 -13 -20 -5 6 12 5 12 -9 0 -12 -10 -17 -10 -17 -2 0 8
-6 7 -16 -3 -8 -9 -18 -16 -22 -17 -32 -3 -58 -11 -71 -22 -12 -10 -13 -9 -7
1 7 12 4 12 -14 2 -12 -6 -28 -9 -36 -6 -8 3 -14 0 -14 -6 0 -6 -3 -8 -7 -5
-3 4 -12 2 -20 -4 -10 -9 -13 -8 -13 2 0 9 -3 10 -8 4 -8 -11 -21 -15 -71 -19
-19 -2 -37 -8 -39 -14 -2 -6 -10 -8 -18 -5 -8 3 -14 -1 -14 -8 0 -7 -3 -10 -6
-6 -4 3 -20 -1 -36 -9 -23 -12 -28 -12 -22 -2 6 10 4 10 -9 -1 -9 -7 -17 -10
-17 -5 0 4 -7 -1 -16 -12 -8 -10 -13 -13 -9 -6 3 6 -10 3 -29 -9 -19 -11 -41
-17 -47 -13 -8 5 -9 3 -4 -6 6 -10 4 -12 -8 -7 -8 3 -21 -1 -27 -8 -7 -8 -16
-12 -21 -9 -5 3 -9 0 -9 -5 0 -6 -11 -11 -25 -11 -14 0 -25 -5 -25 -12 0 -6
-3 -9 -6 -5 -4 3 -13 0 -21 -8 -8 -8 -23 -15 -34 -15 -10 0 -19 -4 -19 -8 0
-9 -57 -44 -64 -40 -3 2 -14 -4 -24 -13 -21 -18 -138 -77 -162 -81 -8 -2 -18
-7 -22 -13 -5 -6 -8 -5 -8 4 0 11 -3 11 -15 1 -12 -10 -15 -10 -15 0 0 10 -3
10 -15 0 -11 -9 -15 -10 -15 -1 0 8 -8 10 -21 6 -16 -5 -20 -4 -15 6 4 8 1 6
-7 -4 -10 -12 -17 -15 -22 -7 -5 8 -11 8 -21 -1 -11 -9 -14 -9 -14 1 0 10 -3
10 -14 1 -8 -6 -18 -11 -22 -10 -5 1 -22 -3 -37 -9 -16 -7 -33 -10 -38 -6 -5
3 -9 0 -9 -6 0 -7 -6 -10 -12 -8 -7 3 -22 -4 -32 -14 -11 -10 -26 -16 -33 -14
-7 3 -19 -1 -27 -9 -7 -8 -16 -11 -20 -8 -3 4 -6 1 -6 -6 0 -7 -4 -10 -8 -7
-5 3 -18 -4 -30 -14 -12 -11 -28 -20 -37 -20 -8 0 -23 -9 -32 -19 -9 -11 -20
-18 -25 -15 -4 3 -8 0 -8 -5 0 -6 -7 -11 -15 -11 -8 0 -15 -4 -15 -10 0 -5 -7
-10 -15 -10 -9 0 -18 -6 -21 -14 -3 -9 -12 -12 -21 -9 -12 5 -14 3 -8 -7 6
-10 4 -12 -8 -7 -11 4 -17 1 -17 -9 0 -8 -4 -13 -9 -10 -5 3 -20 -3 -33 -14
-14 -11 -28 -16 -32 -13 -3 3 -6 1 -6 -5 0 -7 -7 -9 -17 -5 -10 3 -15 3 -11
-2 6 -6 -62 -65 -77 -65 -2 0 -21 -16 -42 -35 -20 -18 -41 -32 -45 -29 -4 3
-8 0 -8 -5 0 -6 -9 -20 -20 -31 -11 -11 -20 -18 -20 -15 0 3 -10 -5 -22 -17
-13 -13 -22 -27 -20 -31 1 -5 -2 -6 -7 -3 -5 4 -13 0 -18 -7 -4 -7 -19 -21
-33 -30 -13 -9 -21 -17 -17 -17 5 0 -13 -18 -38 -40 -25 -22 -43 -40 -40 -40
3 0 -9 -13 -27 -30 -18 -16 -36 -30 -41 -30 -4 0 -6 -4 -3 -9 3 -5 -1 -12 -10
-15 -8 -3 -12 -10 -9 -16 3 -5 -1 -10 -9 -10 -9 0 -16 -4 -16 -9 0 -6 -10 -7
-22 -4 -13 3 -31 6 -40 6 -10 1 -18 5 -18 9 0 4 -9 5 -20 3 -11 -2 -20 1 -20
7 0 7 -4 7 -14 -1 -10 -9 -16 -8 -26 4 -10 12 -16 13 -26 4 -8 -6 -14 -8 -14
-3 0 5 -5 2 -10 -6 -7 -11 -10 -11 -10 -2 0 10 -5 10 -20 2 -11 -6 -25 -8 -30
-5 -6 3 -10 1 -10 -5 0 -6 -5 -8 -10 -5 -6 3 -13 -1 -16 -9 -3 -9 -10 -13 -15
-10 -6 3 -16 0 -24 -6 -8 -6 -19 -9 -25 -5 -6 4 -9 1 -8 -7 2 -7 -5 -12 -14
-12 -10 1 -18 -2 -18 -8 0 -5 -4 -6 -10 -3 -5 3 -10 -2 -10 -11 0 -10 -3 -14
-7 -11 -3 4 -12 -2 -20 -13 -8 -11 -19 -20 -25 -20 -6 0 -25 -15 -43 -33 -18
-18 -37 -31 -44 -29 -6 2 -11 -4 -11 -14 0 -9 -3 -15 -6 -11 -3 3 -15 -3 -27
-13 -11 -11 -24 -17 -29 -14 -4 3 -8 0 -8 -5 0 -6 -3 -11 -8 -10 -15 2 -52
-14 -52 -23 0 -5 -4 -7 -9 -3 -6 3 -15 -4 -21 -15 -6 -11 -17 -20 -25 -20 -8
0 -15 -4 -15 -10 0 -5 -7 -10 -17 -10 -9 0 -13 -3 -10 -7 4 -3 -9 -17 -28 -30
-20 -14 -33 -29 -29 -35 4 -6 3 -8 -3 -5 -11 7 -44 -28 -35 -38 4 -4 2 -5 -5
-3 -11 3 -112 -96 -113 -111 -2 -19 -61 -73 -84 -75 -14 -2 -23 0 -21 4 3 5
-2 11 -11 14 -21 8 -22 8 -19 -11 3 -29 16 -53 26 -47 14 8 5 -30 -14 -60 -10
-14 -14 -26 -10 -26 5 0 0 -5 -10 -11 -9 -6 -15 -14 -12 -20 4 -5 1 -9 -4 -9
-6 0 -11 -3 -10 -7 2 -16 -14 -53 -22 -53 -5 0 -8 -3 -8 -7 1 -5 0 -11 -1 -15
-1 -5 -4 -12 -5 -18 -1 -5 -4 -12 -5 -15 -1 -3 -4 -9 -5 -15 -1 -5 -4 -11 -5
-12 -2 -3 -8 -36 -12 -65 -1 -7 -5 -13 -10 -13 -5 0 -4 -8 1 -18 6 -11 5 -24
-2 -37 -13 -24 -15 -58 -3 -66 5 -4 5 -13 0 -20 -13 -21 -14 -42 -2 -56 6 -7
7 -13 2 -13 -5 0 -1 -5 9 -11 13 -8 15 -14 7 -29 -6 -12 -6 -20 0 -22 5 -2 11
-15 12 -30 1 -16 5 -28 8 -28 3 0 7 -15 8 -32 2 -18 7 -34 12 -36 6 -2 10 -17
10 -33 0 -16 5 -29 10 -29 6 0 10 -7 10 -16 0 -9 5 -12 13 -8 9 6 9 4 -1 -8
-10 -13 -10 -17 3 -22 9 -3 13 -10 10 -16 -3 -5 -1 -10 4 -10 6 0 11 -9 11
-20 0 -11 5 -20 10 -20 6 0 10 -9 10 -19 0 -11 4 -21 9 -23 5 -1 11 -10 13
-18 2 -8 11 -23 20 -34 10 -11 18 -26 18 -33 0 -7 5 -13 10 -13 6 0 10 -5 10
-11 0 -7 11 -22 24 -34 14 -13 22 -26 19 -29 -4 -3 -1 -6 5 -6 7 0 12 -7 12
-16 0 -8 4 -13 8 -10 4 2 14 -9 21 -25 7 -16 20 -29 29 -29 15 0 15 -2 2 -10
-8 -5 -12 -10 -7 -10 4 0 1 -13 -8 -30 -9 -16 -13 -30 -10 -30 8 0 -27 -63
-40 -72 -5 -4 -6 -8 -1 -8 5 0 3 -7 -4 -15 -6 -8 -9 -18 -6 -24 3 -5 -1 -11
-9 -15 -8 -3 -15 -13 -15 -23 0 -10 -11 -27 -25 -37 -13 -10 -22 -22 -19 -27
3 -5 0 -9 -6 -9 -6 0 -8 -4 -5 -10 3 -5 -1 -10 -9 -10 -8 0 -18 -9 -21 -21 -4
-12 -14 -29 -23 -39 -53 -57 -62 -69 -62 -81 0 -11 -3 -11 -10 1 -5 8 -10 10
-10 4 0 -7 -12 -25 -27 -41 -32 -34 -154 -119 -166 -115 -4 1 -17 -7 -29 -18
-12 -11 -32 -20 -45 -20 -13 0 -23 -5 -23 -11 0 -5 -4 -7 -10 -4 -5 3 -10 1
-10 -6 0 -7 -3 -10 -6 -7 -3 4 -22 -1 -42 -9 -20 -9 -50 -18 -67 -20 -16 -3
-43 -12 -58 -20 -16 -8 -26 -10 -23 -4 5 8 0 8 -18 1 -14 -5 -26 -7 -26 -4 0
2 -9 0 -20 -6 -14 -8 -20 -8 -20 0 0 8 -6 8 -20 0 -15 -8 -20 -8 -20 2 0 8 -3
9 -8 3 -11 -16 -44 -18 -53 -3 -6 8 -12 9 -16 3 -9 -12 -43 -16 -43 -6 0 4
-11 8 -25 9 -46 3 -55 5 -55 12 0 4 -7 7 -15 8 -8 1 -22 3 -30 4 -8 1 -15 5
-15 10 0 5 -4 7 -9 3 -5 -3 -16 4 -24 15 -7 11 -16 19 -18 17 -2 -2 -14 7 -26
20 -12 13 -18 23 -12 23 5 0 4 6 -3 14 -7 8 -16 12 -20 9 -5 -2 -8 3 -8 11 0
9 -5 16 -11 16 -5 0 -8 4 -4 9 10 17 -12 21 -25 6 -9 -10 -9 -15 -1 -15 6 0
11 -5 11 -11 0 -5 -4 -7 -10 -4 -6 3 -7 -1 -4 -9 3 -9 10 -16 14 -16 6 0 16
-32 20 -68 1 -4 9 -15 17 -24 9 -10 12 -18 7 -18 -5 0 -1 -5 9 -11 9 -5 17
-21 17 -35 0 -14 4 -22 10 -19 5 3 10 -3 10 -14 0 -12 5 -21 10 -21 6 0 10 -7
10 -15 0 -8 5 -15 10 -15 6 0 10 -5 10 -10 0 -6 11 -23 25 -38 13 -14 20 -29
15 -32 -18 -11 9 -90 30 -90 6 0 10 -5 10 -10 0 -6 11 -22 25 -36 14 -14 25
-29 25 -34 0 -6 4 -9 9 -8 5 2 9 -1 9 -6 0 -4 17 -19 36 -32 20 -14 36 -29 36
-34 0 -6 7 -10 15 -10 8 0 15 -5 15 -11 0 -5 5 -7 10 -4 6 3 13 -1 16 -9 3 -9
10 -13 15 -10 5 3 12 -2 15 -10 3 -9 12 -16 20 -16 8 0 14 -4 14 -10 0 -5 5
-10 11 -10 5 0 7 6 3 13 -4 6 4 2 18 -11 13 -12 28 -19 32 -15 4 5 14 0 21
-10 9 -13 15 -15 20 -7 6 9 9 9 14 1 4 -6 16 -13 27 -15 10 -2 32 -9 47 -15
16 -6 33 -9 38 -5 5 3 9 0 9 -6 0 -7 7 -10 15 -6 8 3 15 0 15 -7 0 -8 3 -8 9
2 6 9 11 10 15 2 4 -6 12 -9 17 -6 5 4 9 1 9 -6 0 -10 3 -10 11 -2 12 12 45 0
61 -22 5 -6 8 -4 8 5 1 12 4 11 15 -4 13 -17 12 -21 -3 -32 -9 -7 -13 -14 -8
-14 13 0 -25 -40 -38 -40 -6 0 -22 -10 -36 -21 -14 -11 -18 -18 -10 -14 8 4 6
-1 -4 -9 -11 -9 -24 -16 -30 -16 -5 0 -7 -3 -4 -6 8 -7 -28 -44 -42 -44 -6 0
-9 -6 -8 -12 2 -7 -3 -12 -10 -10 -8 1 -16 -7 -19 -18 -3 -11 -8 -20 -12 -20
-4 0 -16 -7 -27 -16 -10 -8 -13 -12 -5 -8 9 5 12 3 7 -4 -4 -7 -14 -12 -22
-12 -8 0 -12 -4 -9 -10 3 -5 1 -10 -6 -10 -7 0 -9 -3 -6 -7 4 -3 -2 -12 -13
-20 -11 -8 -20 -19 -20 -24 0 -5 -11 -21 -25 -35 -14 -14 -25 -31 -25 -39 0
-8 -5 -15 -11 -15 -5 0 -7 -4 -4 -10 3 -5 1 -10 -5 -10 -9 0 -25 -29 -29 -52
0 -5 -10 -17 -22 -29 -11 -11 -18 -27 -15 -35 3 -8 1 -14 -5 -14 -6 0 -7 -4
-4 -10 3 -5 1 -10 -4 -10 -6 0 -11 -9 -11 -20 0 -11 -5 -20 -11 -20 -5 0 -8
-4 -4 -9 3 -5 1 -12 -5 -16 -6 -4 -8 -11 -5 -16 4 -5 1 -9 -5 -9 -6 0 -9 -4
-6 -9 4 -5 0 -12 -6 -14 -10 -4 -9 -6 1 -6 11 -1 10 -6 -5 -23 -10 -12 -13
-18 -6 -14 17 10 15 0 -5 -19 -13 -13 -13 -19 -4 -25 10 -5 10 -9 2 -14 -6 -4
-9 -12 -6 -17 4 -5 2 -9 -3 -9 -5 0 -8 -11 -7 -25 2 -14 -1 -25 -7 -25 -6 0
-8 -9 -5 -20 3 -11 0 -20 -6 -20 -7 0 -5 -5 3 -10 11 -7 11 -10 2 -10 -10 0
-10 -5 -2 -20 8 -15 8 -20 -2 -20 -9 0 -9 -3 2 -10 11 -7 11 -10 2 -10 -8 0
-10 -5 -6 -12 5 -7 7 -27 5 -45 -1 -18 2 -33 7 -33 11 0 10 -25 -1 -36 -10
-10 -9 -26 2 -20 4 3 7 -5 6 -19 -2 -13 3 -29 11 -36 11 -9 11 -15 3 -25 -6
-8 -7 -14 -2 -14 5 0 10 -7 10 -15 0 -8 -4 -15 -9 -15 -5 0 -6 -6 -1 -12 4 -7
8 -20 8 -28 0 -8 4 -21 8 -28 5 -6 5 -17 2 -22 -3 -5 -1 -10 5 -10 6 0 8 -4 5
-10 -3 -5 1 -20 10 -33 8 -13 12 -27 8 -30 -3 -4 -1 -7 5 -7 6 0 9 -7 6 -15
-4 -8 -1 -15 6 -15 6 0 9 -4 5 -9 -3 -5 2 -17 11 -25 8 -9 12 -16 8 -16 -3 0
-1 -6 5 -13 6 -8 8 -17 4 -20 -3 -4 -2 -7 3 -7 5 0 11 -12 12 -26 1 -15 7 -33
13 -40 9 -11 8 -14 0 -14 -8 0 -9 -6 -3 -18 11 -22 7 -65 -6 -70 -6 -2 -8 -14
-6 -28 2 -13 0 -24 -5 -24 -5 0 -8 -11 -6 -25 1 -14 -2 -25 -8 -25 -6 0 -7 -3
-4 -7 4 -3 2 -12 -4 -20 -9 -10 -8 -13 1 -13 10 0 10 -3 0 -15 -9 -11 -9 -15
-1 -15 7 0 6 -8 -4 -24 -12 -18 -13 -30 -6 -50 7 -17 7 -26 1 -26 -6 0 -10 -5
-10 -11 0 -5 4 -8 9 -5 4 3 5 -12 1 -34 -4 -24 -3 -43 3 -49 6 -6 7 -11 2 -11
-6 0 -3 -5 5 -11 12 -8 12 -12 2 -16 -10 -4 -10 -8 -1 -19 9 -11 8 -14 -2 -14
-9 0 -10 -3 -4 -8 10 -7 17 -27 18 -49 0 -7 5 -13 11 -13 6 0 5 -4 -2 -9 -11
-7 -11 -9 2 -14 9 -4 13 -13 10 -22 -3 -8 -1 -15 6 -15 6 0 9 -4 6 -8 -3 -5 2
-21 10 -36 7 -16 14 -35 14 -42 0 -8 5 -14 11 -14 5 0 8 -4 4 -9 -3 -5 2 -16
11 -25 8 -9 12 -20 9 -26 -3 -5 -1 -10 5 -10 6 0 8 -4 5 -10 -3 -5 -2 -10 4
-10 13 0 42 -55 34 -64 -4 -3 1 -6 10 -6 9 0 17 -4 17 -9 0 -4 11 -20 25 -35
23 -25 24 -29 10 -55 -15 -30 -40 -45 -56 -35 -5 3 -9 1 -9 -3 0 -10 -64 -8
-81 2 -8 5 -10 4 -5 -3 4 -7 2 -12 -3 -12 -6 0 -11 6 -11 13 0 9 -2 9 -9 -1
-6 -10 -10 -10 -21 3 -10 12 -16 13 -26 4 -11 -9 -14 -8 -14 0 0 7 -5 9 -10 6
-6 -3 -10 0 -10 7 0 11 -2 10 -9 0 -6 -10 -10 -9 -14 7 -3 13 -11 19 -19 16
-14 -6 -90 59 -80 69 3 3 -2 6 -12 6 -9 0 -14 4 -11 10 3 5 1 10 -4 10 -6 0
-10 6 -9 13 2 6 -3 11 -11 9 -8 -2 -11 3 -8 11 3 8 -1 24 -9 35 -11 16 -11 21
-1 25 7 3 7 6 1 6 -7 1 -9 16 -4 46 9 63 -3 78 -34 40 -13 -16 -22 -33 -19
-37 2 -5 -1 -8 -7 -8 -7 0 -10 -7 -7 -15 4 -8 2 -17 -4 -20 -5 -4 -7 -11 -4
-16 4 -5 0 -9 -7 -9 -9 0 -9 -3 2 -10 12 -8 12 -10 1 -10 -8 0 -11 -3 -8 -7 4
-3 2 -12 -4 -20 -9 -10 -8 -13 0 -13 7 0 9 -5 5 -12 -12 -19 -12 -48 -1 -48 5
0 4 -7 -3 -15 -7 -8 -10 -15 -6 -15 4 0 -1 -11 -10 -25 -9 -14 -13 -25 -9 -25
4 0 3 -6 -2 -12 -12 -17 -9 -76 5 -90 8 -8 8 -17 1 -30 -7 -13 -6 -20 4 -24 8
-3 13 -16 11 -30 -1 -15 2 -22 8 -17 7 4 9 -2 6 -15 -4 -12 -2 -22 4 -22 5 0
6 -4 3 -10 -3 -5 -1 -10 4 -10 6 0 10 -3 9 -7 -4 -15 13 -53 23 -53 6 0 7 -4
4 -10 -3 -5 3 -15 14 -22 15 -9 17 -15 9 -25 -6 -8 -8 -16 -6 -19 3 -3 -11
-21 -31 -41 -20 -19 -35 -39 -33 -44 1 -5 -3 -9 -10 -9 -6 0 -8 -3 -5 -7 4 -3
-2 -13 -13 -20 -23 -16 -74 -91 -75 -110 0 -14 -76 -122 -85 -121 -11 2 -65
-24 -72 -35 -4 -7 -13 -12 -20 -12 -7 -1 -12 -6 -11 -13 2 -7 -4 -9 -14 -5
-11 4 -14 3 -9 -5 6 -11 1 -14 -20 -11 -3 0 -14 -9 -23 -20 -10 -11 -21 -18
-25 -14 -3 3 -6 1 -6 -6 0 -7 -5 -9 -10 -6 -6 3 -10 -1 -10 -9 0 -8 -5 -18
-12 -22 -7 -5 -9 -2 -4 7 4 8 1 6 -7 -4 -8 -9 -20 -17 -26 -17 -7 0 -10 -4 -7
-9 3 -5 -4 -11 -15 -14 -12 -3 -18 -10 -14 -16 3 -6 1 -11 -5 -11 -17 0 -100
-82 -94 -92 3 -4 -2 -8 -11 -8 -11 0 -15 -5 -12 -14 4 -11 1 -13 -11 -9 -9 3
-14 3 -11 -1 4 -4 -3 -18 -15 -31 -29 -32 -39 -45 -55 -77 -8 -16 -18 -28 -23
-28 -4 0 -8 -7 -8 -16 0 -8 -7 -22 -15 -30 -22 -23 -22 -455 0 -478 8 -8 15
-22 15 -30 0 -9 5 -16 11 -16 5 0 7 -4 4 -10 -3 -5 -1 -10 5 -10 6 0 8 -5 5
-10 -3 -6 -1 -10 5 -10 6 0 8 -4 5 -10 -3 -5 -1 -10 6 -10 7 0 10 -3 6 -6 -3
-4 -1 -12 6 -19 7 -7 19 -23 27 -35 8 -12 20 -28 27 -35 7 -7 9 -15 6 -19 -6
-6 13 -10 31 -7 5 1 6 -5 3 -14 -4 -8 -2 -15 4 -15 6 0 7 -4 4 -10 -3 -5 -1
-10 4 -10 6 0 11 -8 11 -17 0 -15 2 -16 10 -3 8 13 10 12 10 -3 0 -10 3 -16 8
-14 4 3 13 -1 20 -9 7 -8 10 -14 6 -14 -3 0 10 -16 29 -35 19 -19 38 -35 42
-35 10 0 54 -48 49 -52 -2 -2 6 -10 18 -17 16 -10 19 -10 13 1 -3 7 0 4 9 -6
8 -10 17 -22 18 -27 2 -4 10 -9 17 -11 8 -2 25 -14 38 -27 13 -13 23 -21 23
-16 0 4 9 -3 20 -16 10 -13 19 -20 20 -16 0 4 12 -4 28 -18 15 -14 37 -28 49
-31 12 -3 25 -14 28 -23 3 -9 14 -17 25 -18 11 -1 29 -11 41 -22 12 -11 26
-18 31 -15 4 3 8 0 8 -6 0 -6 5 -8 10 -5 6 3 10 1 10 -4 0 -6 7 -11 15 -11 8
0 15 -5 15 -11 0 -5 5 -7 10 -4 6 3 10 1 10 -5 0 -6 5 -8 10 -5 6 3 10 1 10
-5 0 -6 5 -8 10 -5 6 3 10 2 10 -3 0 -9 37 -25 53 -23 4 1 7 -3 7 -8 0 -11 59
-35 79 -32 7 1 10 -2 7 -8 -4 -5 -2 -12 4 -16 5 -3 10 0 10 7 0 10 2 10 9 -1
5 -7 14 -10 20 -7 6 4 11 2 11 -3 0 -6 9 -11 19 -11 11 0 21 -4 23 -10 2 -5
15 -11 31 -12 15 -1 27 -6 27 -11 0 -4 4 -5 10 -2 5 3 10 2 10 -4 0 -6 7 -8
15 -5 9 4 15 0 15 -7 0 -11 2 -11 10 1 7 12 11 12 28 -3 11 -10 23 -17 28 -16
5 1 11 0 14 -1 3 -1 18 -4 35 -6 16 -3 33 -10 36 -16 4 -7 9 -5 12 3 4 11 6
11 6 1 1 -7 6 -10 11 -7 6 3 10 2 10 -2 0 -5 8 -9 18 -10 64 -5 118 -16 120
-24 3 -6 10 -5 18 2 11 9 15 8 20 -5 5 -13 9 -14 21 -5 10 9 17 9 25 1 6 -6
17 -8 24 -5 8 3 14 1 14 -4 0 -5 8 -9 18 -10 69 -3 102 -8 102 -17 0 -6 5 -5
12 2 9 9 16 8 30 -5 11 -10 18 -11 18 -5 0 7 5 12 11 12 5 0 8 -4 5 -9 -3 -4
5 -6 18 -4 13 3 33 0 43 -6 14 -7 23 -7 31 1 7 7 12 8 12 2 0 -5 9 -10 20 -10
11 0 20 4 20 9 0 4 4 5 10 2 27 -17 207 -29 215 -14 3 4 16 6 30 4 14 -1 25 1
25 6 0 4 13 4 30 -1 16 -5 30 -5 30 -1 0 3 9 7 20 7 11 0 20 -3 20 -7 0 -3 11
-4 25 -1 14 2 22 9 18 15 -4 6 -1 7 6 3 19 -12 80 -9 96 4 12 10 15 10 15 -1
0 -11 2 -11 10 1 8 12 10 12 10 1 0 -9 4 -10 13 -4 6 6 20 9 30 8 9 -2 17 1
17 7 0 6 6 5 15 -2 12 -10 15 -10 15 1 0 11 2 11 10 -1 5 -8 10 -10 10 -4 0 7
11 14 25 16 14 3 25 2 25 -1 0 -4 9 -7 20 -7 11 0 20 4 20 9 0 4 4 6 9 2 5 -3
12 -1 15 3 3 5 26 6 51 2 30 -5 51 -3 58 4 14 13 37 14 54 3 6 -4 15 -2 19 4
4 8 9 7 15 -2 7 -12 9 -12 9 0 0 11 3 11 15 1 11 -9 15 -10 15 -1 0 8 8 10 21
6 14 -5 19 -3 15 3 -6 10 19 11 29 0 8 -8 76 2 99 14 14 8 17 7 10 -4 -6 -11
-5 -11 9 1 10 7 17 9 17 3 0 -11 18 -11 35 0 6 4 23 5 38 4 15 -2 27 1 27 5 0
5 5 9 11 9 5 0 7 -6 3 -12 -6 -10 -5 -10 7 -1 12 10 18 10 27 1 9 -9 12 -9 12
2 0 7 3 10 7 7 3 -4 12 -2 20 4 10 9 13 8 13 -1 0 -9 4 -9 17 1 15 12 16 12 8
-1 -7 -12 -6 -13 6 -4 8 6 31 11 52 10 20 0 37 2 37 7 0 4 5 7 11 7 5 0 7 -6
4 -12 -4 -7 0 -5 8 4 10 13 16 15 25 6 9 -9 12 -9 12 1 0 7 4 10 9 6 5 -3 12
-1 15 3 3 5 16 7 30 5 13 -3 34 0 46 7 18 10 21 10 14 -2 -6 -11 -5 -11 9 1
13 10 17 10 17 1 0 -10 3 -10 15 0 8 7 15 9 15 4 0 -5 5 -2 10 6 9 13 10 13
10 0 0 -11 3 -10 11 4 9 14 13 15 19 5 7 -10 11 -10 24 0 13 11 16 11 16 1 0
-8 3 -10 7 -7 3 4 12 2 20 -4 10 -9 13 -8 13 1 0 9 3 10 13 1 8 -6 17 -8 20
-4 4 3 7 1 7 -5 0 -7 12 -10 30 -8 17 2 33 -1 36 -6 4 -6 10 -5 15 3 6 10 9
10 9 2 0 -7 7 -10 15 -7 9 4 15 0 15 -7 0 -11 3 -11 10 1 6 9 10 10 10 3 0 -8
13 -11 34 -9 21 1 32 -2 29 -8 -4 -5 1 -7 10 -3 10 4 17 2 17 -5 0 -7 5 -6 15
2 12 10 15 10 15 0 0 -10 4 -10 16 1 11 9 17 10 22 1 4 -6 33 -12 65 -14 31
-2 57 -6 57 -9 0 -11 30 -6 30 5 0 6 5 4 10 -4 5 -8 10 -11 10 -6 0 5 7 3 15
-4 11 -9 15 -9 15 -1 0 9 5 9 20 1 14 -8 20 -8 20 0 0 8 6 8 20 0 15 -8 20 -8
20 1 0 7 8 5 20 -6 13 -12 20 -14 20 -5 0 10 3 10 15 0 12 -10 15 -10 15 1 0
12 2 12 9 0 6 -9 11 -10 15 -2 4 6 13 8 19 4 18 -11 47 -11 47 0 0 6 5 6 13 0
6 -6 20 -9 29 -8 10 2 20 0 22 -3 2 -4 144 -7 315 -6 237 0 314 4 325 14 9 7
16 8 16 3 0 -5 9 -9 20 -10 11 -1 18 2 16 6 -3 4 1 8 9 8 8 0 15 -5 15 -11 0
-6 4 -6 12 2 7 7 17 8 30 1 13 -7 18 -6 18 2 0 9 3 9 14 0 11 -9 15 -9 19 1 4
10 6 10 6 -1 1 -11 4 -11 17 0 11 9 17 10 23 1 4 -6 12 -8 20 -2 8 4 21 6 29
2 9 -3 13 -1 10 4 -4 5 5 10 19 11 15 0 21 -2 14 -6 -7 -4 2 -8 19 -8 20 0 26
3 18 9 -18 11 -5 10 26 -2 16 -6 26 -6 26 0 0 5 9 7 20 5 11 -2 20 1 20 7 0 7
5 6 14 -1 10 -8 16 -9 21 -1 4 7 12 7 25 0 13 -7 20 -6 23 3 4 9 8 8 16 -3 6
-8 11 -10 11 -5 0 10 36 18 68 16 48 -4 92 2 92 12 0 5 7 4 15 -3 8 -7 15 -8
15 -3 0 6 27 9 60 9 44 -1 61 3 65 14 5 13 7 13 16 0 5 -10 12 -11 17 -5 4 6
37 10 74 10 38 0 68 2 68 5 0 8 32 11 104 9 16 -1 31 4 35 9 4 6 12 7 19 3 15
-9 64 -2 57 8 -6 11 39 7 47 -4 5 -7 8 -6 8 1 0 5 17 11 38 13 68 5 82 7 88
14 4 4 24 7 44 7 20 0 42 6 49 13 11 10 12 9 6 -3 -8 -13 -7 -13 8 -1 13 10
17 10 17 1 0 -9 3 -10 14 -1 7 6 21 9 30 5 9 -3 16 -1 16 5 0 6 5 11 11 11 5
0 7 -4 4 -10 -3 -6 1 -7 9 -4 9 3 16 11 16 16 0 6 7 5 15 -2 9 -7 18 -10 22
-7 3 4 12 2 20 -4 7 -6 13 -8 13 -4 0 4 7 2 15 -5 8 -6 19 -9 25 -5 5 3 10 1
10 -6 0 -7 3 -10 6 -6 4 3 19 0 35 -9 16 -8 29 -12 29 -8 0 4 7 1 15 -6 9 -7
18 -10 21 -7 4 3 13 0 21 -8 18 -18 37 -20 27 -2 -4 6 3 3 15 -8 13 -11 33
-18 47 -17 13 2 24 -2 24 -8 0 -6 5 -8 10 -5 6 4 18 1 27 -7 11 -8 14 -9 10
-1 -5 8 1 8 20 -2 15 -8 47 -17 70 -21 24 -3 43 -11 43 -16 0 -6 6 -5 15 2 12
10 16 10 20 -1 3 -8 19 -14 38 -13 17 0 38 -4 44 -9 7 -5 20 -7 28 -3 9 3 13
2 10 -3 -3 -5 -1 -12 5 -16 5 -3 10 0 10 7 0 9 3 9 10 -2 5 -8 10 -11 10 -6 0
5 7 3 15 -4 12 -10 15 -10 15 1 0 11 2 11 10 -1 9 -13 10 -13 10 0 1 13 2 13
13 0 7 -8 26 -16 42 -16 41 -2 59 -7 67 -19 5 -6 8 -5 8 4 0 11 3 11 15 1 12
-10 15 -10 15 0 0 9 7 7 20 -5 13 -12 20 -14 20 -5 0 10 3 10 15 0 8 -7 15 -9
15 -5 0 4 7 2 15 -5 11 -9 15 -9 15 -1 0 8 5 9 19 1 11 -5 31 -10 45 -10 14 0
28 -5 31 -10 5 -8 11 -7 21 1 11 9 14 9 14 0 0 -7 5 -9 10 -6 6 4 17 1 25 -5
12 -10 15 -10 15 0 0 9 3 10 14 1 7 -6 21 -9 30 -5 9 3 16 2 16 -3 0 -5 7 -10
15 -10 8 0 15 5 15 11 0 6 4 5 9 -3 5 -7 15 -11 22 -9 8 3 22 1 32 -4 12 -6
17 -5 17 4 1 9 5 8 13 -4 9 -12 17 -14 30 -7 12 7 17 6 17 -2 0 -8 4 -8 15 1
13 11 19 8 17 -11 -1 -3 21 -4 48 -1 28 2 51 -1 55 -8 5 -8 11 -8 21 1 11 9
14 9 14 0 0 -9 5 -9 20 -1 11 6 20 7 20 2 0 -5 26 -10 57 -11 32 -1 62 -6 68
-10 5 -4 20 -6 33 -5 12 0 22 -4 22 -10 0 -6 5 -4 10 4 7 11 10 11 10 2 0 -7
5 -10 10 -7 6 4 18 1 27 -7 14 -11 16 -11 8 2 -8 13 -6 13 8 1 9 -7 23 -11 30
-8 7 3 21 -1 32 -9 13 -10 22 -11 32 -3 9 8 13 8 13 0 0 -6 17 -11 39 -11 23
0 41 -5 44 -12 3 -10 7 -10 19 0 11 8 18 9 22 3 4 -6 14 -7 23 -4 10 4 14 2
10 -4 -3 -5 0 -10 8 -10 8 0 15 4 15 8 0 11 33 -1 42 -15 6 -8 8 -8 8 0 0 12
29 12 48 0 15 -9 150 -11 182 -2 14 4 20 4 13 -1 -6 -4 19 -8 57 -8 39 0 63 4
57 8 -7 5 -4 6 8 2 33 -11 181 -8 205 5 18 10 21 10 14 -2 -6 -11 -5 -11 9 1
13 10 17 10 17 1 0 -9 3 -10 13 -1 8 6 17 8 20 4 4 -3 7 -1 7 6 0 8 5 9 19 1
14 -7 23 -6 33 3 16 15 48 18 48 5 0 -6 6 -5 15 2 8 7 22 10 30 6 8 -3 15 0
15 6 0 6 3 8 7 5 3 -4 12 -2 20 4 10 9 13 8 13 -1 0 -10 3 -10 14 -1 11 9 15
9 19 -1 4 -11 6 -10 6 0 1 7 6 10 11 7 6 -3 10 -1 10 5 0 6 4 9 9 5 5 -3 13 0
17 6 4 8 9 7 15 -2 5 -8 9 -9 9 -4 0 6 12 12 28 13 15 1 36 6 47 11 38 18 87
31 96 25 5 -3 9 0 9 6 0 6 5 8 10 5 6 -3 10 0 10 7 0 10 2 10 9 -1 6 -9 11
-10 15 -2 4 6 12 9 17 6 5 -4 9 -1 9 6 0 7 3 9 7 6 3 -4 17 0 31 9 13 9 21 11
17 4 -5 -9 -1 -8 16 1 13 7 35 15 49 17 13 2 30 8 37 14 8 6 16 8 19 5 3 -3
20 1 39 8 18 8 35 11 39 8 3 -4 6 -1 6 5 0 6 6 9 14 6 8 -3 17 0 21 5 3 6 11
9 16 6 5 -4 9 -1 9 5 0 6 5 8 10 5 6 -3 10 -2 10 2 0 5 10 9 22 10 11 1 24 7
28 13 4 7 10 11 14 11 25 -4 36 0 30 11 -5 7 -3 8 5 4 7 -5 18 0 26 10 9 12
14 14 15 6 0 -14 44 10 68 38 8 9 11 10 7 1 -5 -9 1 -8 19 4 14 10 26 21 26
24 0 4 7 8 15 9 8 1 22 3 30 4 8 1 12 4 10 8 -3 4 14 16 37 26 23 10 43 17 45
14 1 -3 9 4 18 15 9 11 13 13 9 5 -5 -8 15 2 44 23 29 20 59 37 67 37 8 0 15
5 15 10 0 6 3 9 8 8 16 -3 42 15 42 31 0 12 2 13 8 3 6 -9 13 -8 28 6 17 16
45 31 59 32 3 0 13 8 23 18 30 28 57 48 64 47 3 0 20 12 37 28 17 15 33 27 35
27 3 0 17 11 32 25 14 13 30 22 35 19 5 -3 9 1 9 9 0 7 11 20 25 27 13 7 22
17 19 22 -5 8 11 12 31 8 6 -1 7 1 3 5 -4 4 4 17 17 30 14 12 22 25 19 28 -3
3 3 8 13 11 10 3 27 19 38 36 11 16 23 30 28 30 4 0 7 7 7 16 0 8 5 12 10 9 7
-4 10 130 10 393 0 346 -2 401 -15 406 -8 3 -15 12 -15 21 0 8 -5 15 -12 15
-6 0 -9 3 -5 6 3 4 1 12 -6 20 -21 24 -32 38 -65 88 -17 27 -32 46 -32 41 0
-4 -14 10 -31 31 -17 22 -48 56 -70 77 -21 21 -39 42 -39 47 0 6 -9 10 -20 10
-11 0 -20 7 -20 15 0 8 -4 15 -10 15 -5 0 -25 15 -44 34 -20 18 -38 31 -41 28
-3 -3 -5 0 -5 6 0 6 -9 14 -20 17 -11 4 -20 15 -20 26 0 14 -4 18 -12 13 -10
-6 -10 -5 -1 8 7 8 10 18 6 21 -3 4 -1 7 6 7 7 0 9 4 6 10 -3 6 -1 10 5 10 6
0 9 4 6 9 -3 5 1 12 10 15 13 5 14 9 5 20 -9 11 -9 16 -1 21 7 4 10 16 7 26
-3 11 0 19 6 19 7 0 4 5 -6 11 -13 8 -15 14 -7 30 6 10 8 19 5 19 -4 0 1 7 9
16 9 8 16 21 16 29 0 7 4 15 10 17 5 2 11 13 13 25 1 11 9 28 16 37 7 9 10 16
5 16 -5 0 -2 5 6 10 11 7 11 10 2 10 -10 0 -10 5 -2 20 6 11 8 24 5 29 -3 5
-1 11 4 13 6 1 13 19 17 38 9 50 10 171 1 177 -4 2 -5 9 -2 14 4 5 0 9 -7 9
-9 0 -9 3 2 10 10 6 11 10 3 10 -7 0 -13 9 -13 20 0 11 -7 20 -15 20 -9 0 -15
-9 -15 -24 0 -13 -6 -27 -12 -29 -10 -4 -10 -6 0 -6 10 -1 10 -4 -2 -16 -8 -8
-13 -24 -11 -35 2 -11 0 -18 -6 -15 -5 4 -12 -2 -16 -12 -8 -21 -33 -48 -33
-36 0 4 -9 -5 -20 -22 -11 -16 -20 -25 -20 -18 0 6 -14 -2 -31 -18 -29 -27
-42 -33 -61 -30 -5 0 -8 -4 -8 -10 0 -6 -7 -9 -15 -5 -8 3 -15 2 -15 -3 0 -5
-9 -11 -20 -14 -11 -3 -20 0 -20 5 0 7 -4 7 -12 1 -7 -6 -59 -11 -116 -11
-101 -2 -104 -1 -134 27 l-31 28 21 21 c11 11 18 23 15 26 -4 3 1 6 11 6 9 0
14 4 11 10 -3 5 5 15 19 21 14 7 23 16 20 21 -3 4 8 21 23 37 16 16 27 33 26
38 -2 6 3 16 12 23 8 7 15 19 15 26 0 8 5 14 12 14 6 0 8 3 5 7 -4 3 -2 12 4
19 5 7 12 25 15 41 3 15 9 30 15 31 5 2 7 8 3 13 -3 5 0 9 6 9 6 0 8 5 5 11
-4 5 1 20 12 31 10 12 12 18 6 14 -7 -4 -13 -2 -13 3 0 6 4 11 9 11 4 0 6 11
3 25 -2 14 0 25 4 25 10 0 12 17 15 140 3 108 -2 160 -16 160 -5 0 -3 5 5 10
8 5 10 10 4 10 -11 0 -15 15 -30 100 -3 19 -10 37 -15 38 -5 2 -7 8 -3 13 3 5
1 9 -5 9 -5 0 -8 9 -6 20 2 11 1 20 -3 20 -4 0 -13 13 -19 30 -8 21 -8 30 1
35 8 3 8 7 -1 11 -9 4 -13 28 -13 68 0 36 5 68 13 75 10 11 9 12 -3 6 -12 -7
-13 -6 -5 6 6 8 24 34 40 59 17 25 34 48 40 52 5 4 6 8 2 8 -5 0 2 14 14 32
13 17 16 28 8 23 -8 -5 -7 0 4 12 14 16 15 22 5 26 -11 4 -11 6 0 6 7 1 10 6
7 11 -3 5 -1 10 5 10 6 0 8 4 5 10 -3 5 -1 10 5 10 6 0 8 5 5 10 -3 6 -3 16 2
23 7 11 11 23 17 57 2 8 6 22 9 30 3 8 8 30 11 48 4 25 3 31 -7 26 -6 -4 -3 2
7 14 11 12 14 22 8 22 -8 0 -9 7 -1 27 13 33 18 137 6 120 -5 -7 -5 -1 -1 13
4 14 8 35 8 48 0 12 5 22 11 22 5 0 4 4 -4 9 -9 6 -10 11 -2 15 6 4 11 13 11
19 0 7 -4 6 -10 -3 -5 -8 -10 -10 -10 -4 0 5 5 15 12 22 8 8 9 12 1 12 -12 0
-12 25 0 36 3 4 2 15 -4 25 -5 11 -6 19 -1 19 4 0 8 9 8 20 0 11 -5 20 -11 20
-5 0 -3 5 5 10 12 7 12 10 1 10 -7 0 -11 6 -8 15 4 8 2 17 -3 20 -6 4 -7 18
-3 33 6 24 8 119 3 132 -1 3 -2 8 -1 13 0 4 -5 7 -11 7 -9 0 -8 4 2 10 12 8
12 10 1 10 -11 0 -11 3 -1 15 10 12 10 15 0 15 -7 0 -10 7 -6 15 3 8 2 15 -2
15 -4 0 -6 18 -6 40 1 22 -3 40 -8 40 -6 0 -4 8 3 17 10 11 10 14 2 9 -7 -4
-13 -3 -13 3 0 5 4 11 9 13 5 2 1 20 -9 40 -12 26 -14 40 -7 47 8 8 7 11 -2
11 -7 0 -11 6 -8 14 3 7 0 19 -6 26 -9 10 -9 11 3 5 12 -7 13 -6 3 7 -7 8 -10
18 -6 21 3 4 0 7 -7 7 -7 0 -10 3 -7 7 4 3 2 12 -4 20 -9 9 -8 13 0 13 7 0 5
10 -6 27 -10 15 -12 24 -5 19 7 -4 3 9 -8 29 -11 20 -15 33 -9 29 8 -5 9 -3 3
7 -9 14 -14 34 -16 57 -1 6 -6 12 -12 12 -6 0 -4 5 4 10 11 7 11 10 2 10 -10
0 -10 5 -2 20 8 15 8 20 -1 20 -6 0 -9 6 -6 14 3 7 0 19 -6 26 -9 10 -9 11 1
5 11 -6 12 -3 3 12 -10 19 -23 73 -24 101 0 6 -5 12 -10 12 -5 0 -4 6 2 14 7
8 8 15 2 18 -5 1 -10 26 -12 53 -1 28 -6 58 -11 68 -5 9 -5 17 0 17 4 0 8 9 8
20 0 11 -4 20 -8 20 -5 0 -7 14 -6 32 2 18 -3 33 -10 36 -10 3 -10 7 -1 18 9
11 9 14 -1 14 -9 0 -10 3 -1 13 6 8 7 17 3 21 -4 4 -8 12 -8 17 -1 5 -2 10 -3
12 -2 1 -3 28 -4 60 -1 31 -6 57 -11 57 -5 0 -6 3 -3 7 4 3 1 13 -6 21 -10 13
-9 14 3 7 12 -6 12 -5 3 5 -6 7 -9 19 -6 26 3 8 0 14 -7 14 -6 0 -8 5 -5 10 3
6 2 10 -2 10 -5 0 -8 16 -8 35 1 19 -3 35 -8 35 -5 0 -7 7 -3 15 3 8 1 15 -4
15 -5 0 -7 7 -4 15 4 9 0 15 -7 15 -11 0 -11 3 1 10 12 8 12 10 1 10 -8 0 -11
3 -8 7 4 3 2 12 -5 20 -6 7 -8 16 -5 19 3 3 -1 17 -8 31 -8 15 -12 30 -9 35 3
4 -1 11 -10 14 -8 3 -12 12 -9 20 3 9 -4 22 -16 31 -12 8 -20 21 -17 29 3 7 1
16 -5 20 -6 3 -8 12 -5 20 3 8 1 14 -4 14 -6 0 -10 9 -10 21 0 11 -4 17 -10
14 -9 -5 -15 15 -11 38 0 4 -4 7 -10 7 -6 0 -8 7 -5 16 3 8 2 13 -3 10 -4 -3
-17 11 -27 32 -10 20 -22 39 -26 40 -5 2 -8 10 -8 18 0 8 -5 14 -11 14 -5 0
-8 4 -5 9 3 5 -5 20 -18 34 -13 14 -21 28 -18 31 3 3 0 6 -7 6 -7 0 -9 5 -6
10 3 6 1 10 -4 10 -6 0 -11 8 -11 17 0 9 -3 14 -6 10 -8 -7 -34 17 -34 32 0 5
-12 19 -26 30 -15 12 -23 21 -19 21 5 0 0 9 -10 20 -10 11 -15 20 -11 20 4 0
1 7 -8 15 -8 8 -20 15 -26 15 -6 0 -10 6 -8 12 3 7 -12 27 -33 44 -21 17 -36
34 -33 37 3 3 -4 8 -15 12 -12 3 -19 11 -16 16 4 5 1 9 -5 9 -6 0 -8 5 -5 10
3 6 -1 10 -9 10 -9 0 -16 6 -16 14 0 8 -9 21 -20 29 -11 8 -17 17 -13 20 3 4
0 7 -7 7 -7 0 -11 3 -7 6 3 4 1 12 -6 20 -30 34 -37 44 -30 44 4 0 -3 7 -15
16 -12 8 -22 22 -22 30 0 8 -4 14 -10 14 -5 0 -10 9 -10 20 0 11 -4 20 -8 20
-5 0 -19 14 -31 31 -13 18 -17 29 -10 25 8 -4 5 0 -5 8 -11 9 -17 16 -13 16 4
0 -1 10 -13 22 -11 12 -20 28 -20 35 0 8 -4 11 -10 8 -5 -3 -10 1 -10 9 0 9
-7 16 -16 16 -8 0 -12 4 -9 10 8 12 -16 51 -75 120 -16 19 -35 46 -42 60 -7
14 -17 28 -23 32 -5 4 -6 8 -2 8 4 0 2 6 -5 14 -7 8 -16 12 -20 9 -5 -2 -8 5
-8 16 0 12 -4 21 -10 21 -5 0 -10 5 -10 10 0 6 -13 24 -29 39 -16 16 -27 32
-24 35 4 3 1 6 -6 6 -6 0 -16 12 -21 26 -6 14 -14 22 -20 19 -5 -3 -10 -1 -10
4 0 23 -2 26 -23 38 -12 7 -19 12 -16 13 4 0 -13 21 -36 47 -24 26 -42 50 -39
54 2 4 -10 12 -26 19 -17 7 -30 17 -30 22 0 14 -66 78 -80 78 -6 0 -8 5 -5 11
4 6 -2 13 -14 16 -12 3 -21 12 -21 19 0 8 -6 14 -14 14 -8 0 -18 9 -21 21 -4
11 -9 18 -12 16 -5 -5 -23 8 -70 50 -14 12 -34 25 -44 28 -11 4 -17 10 -14 15
3 5 0 10 -6 12 -6 2 26 3 72 2 46 -1 90 3 97 8 7 6 12 7 12 1 0 -5 7 -10 15
-10 8 0 12 5 8 10 -3 5 3 6 16 2 11 -3 21 -2 21 3 0 5 11 8 25 7 14 -2 27 1
31 6 3 5 10 7 15 4 5 -4 9 -1 9 4 0 6 3 11 8 10 15 -2 52 14 52 23 0 6 6 8 14
5 8 -3 24 7 36 23 13 16 27 27 31 24 5 -3 9 0 9 6 0 6 11 21 25 34 14 13 25
29 25 35 0 7 5 9 10 6 6 -3 10 3 10 14 0 28 -20 37 -27 12 -3 -11 -9 -18 -14
-15 -5 3 -12 -1 -15 -10 -3 -8 -12 -17 -20 -20 -8 -3 -13 -2 -10 3 4 5 -3 7
-14 4 -11 -3 -18 -9 -15 -12 2 -4 -2 -8 -10 -8 -8 0 -15 4 -15 9 0 4 -5 8 -11
8 -5 0 -8 -4 -4 -9 3 -6 -4 -8 -17 -5 -13 3 -42 5 -65 5 -42 0 -63 12 -43 24
6 4 7 11 4 17 -4 6 -3 8 3 5 5 -3 21 0 36 8 15 8 27 11 27 7 1 -4 9 3 19 15
10 12 22 19 25 15 4 -3 11 -1 15 6 4 7 18 15 31 17 13 2 27 10 32 17 4 7 8 9
8 3 0 -5 7 -2 14 8 8 10 17 18 20 18 18 -2 25 2 54 30 18 17 32 28 32 23 0 -5
12 8 27 29 14 20 30 37 35 37 5 0 6 5 3 10 -3 6 -1 10 4 10 6 0 11 7 11 15 0
8 5 15 11 15 5 0 7 5 4 10 -3 6 -2 10 4 10 6 0 7 7 4 17 -4 11 -3 14 5 9 8 -5
10 -2 6 8 -4 9 -1 16 6 16 10 0 10 3 0 15 -10 12 -10 15 1 15 11 0 11 2 -1 10
-12 8 -12 10 -1 10 8 0 11 3 8 6 -3 4 -2 15 4 25 7 14 6 19 -3 19 -9 0 -9 3 2
10 8 5 10 10 4 10 -15 0 -26 40 -11 40 8 0 7 4 -2 9 -7 5 -10 14 -7 20 4 6 2
11 -4 11 -6 0 -8 5 -5 10 3 6 1 10 -5 10 -6 0 -8 5 -5 10 3 6 2 10 -3 10 -6 0
-13 12 -16 26 -4 15 -9 24 -13 21 -3 -3 -15 5 -27 18 -19 20 -84 50 -93 42 -1
-2 6 -13 17 -25 26 -28 64 -95 48 -86 -9 6 -9 3 1 -9 11 -14 11 -17 0 -17 -12
0 -12 -2 0 -9 9 -6 10 -11 2 -15 -6 -4 -11 -16 -11 -27 0 -10 -6 -19 -12 -19
-9 0 -8 -4 2 -10 11 -7 11 -10 2 -10 -7 0 -10 -4 -7 -10 3 -5 1 -10 -6 -10 -7
0 -9 -3 -6 -7 4 -3 -5 -17 -19 -30 -14 -12 -22 -23 -18 -23 4 0 -11 -17 -32
-37 -21 -20 -38 -40 -37 -44 1 -4 -4 -10 -13 -13 -8 -3 -12 -1 -9 4 3 6 -1 7
-9 4 -9 -3 -13 -10 -10 -15 3 -5 -2 -9 -10 -9 -9 0 -16 -4 -16 -10 0 -5 -6
-10 -12 -10 -7 0 -26 -7 -41 -15 -19 -9 -25 -10 -21 -2 5 9 3 9 -7 0 -7 -7
-21 -13 -31 -13 -10 0 -18 -4 -18 -9 0 -7 -34 -18 -77 -23 -7 -1 -13 -5 -13
-9 0 -4 -9 -5 -20 -2 -11 3 -20 0 -20 -6 0 -7 -8 -8 -26 -1 -16 7 -23 7 -19 0
4 -6 -7 -10 -24 -10 -17 0 -31 -5 -31 -11 0 -8 -5 -8 -15 1 -12 10 -15 10 -15
0 0 -10 -3 -10 -15 0 -12 10 -15 10 -15 0 0 -10 -3 -10 -15 0 -12 10 -15 10
-15 0 0 -10 -3 -10 -15 0 -8 6 -18 9 -24 6 -5 -3 -12 0 -14 6 -4 10 -6 10 -6
0 -1 -9 -6 -10 -20 -2 -14 7 -21 6 -24 -3 -4 -8 -6 -8 -6 0 -1 6 -10 9 -21 6
-11 -3 -20 -1 -20 4 0 5 -12 10 -27 11 -29 3 -68 9 -68 12 0 2 -28 9 -50 12
-11 2 -26 9 -33 16 -8 7 -17 10 -22 7 -5 -3 -10 0 -12 6 -2 6 -15 12 -30 12
-14 1 -24 4 -22 6 2 2 -19 15 -46 29 -28 13 -65 42 -84 62 -19 21 -37 36 -40
32 -3 -3 -6 2 -6 11 0 15 -11 21 -32 18 -4 0 -10 8 -13 19 -4 11 -10 18 -15
15 -5 -3 -12 1 -17 9 -4 8 -15 16 -23 18 -17 4 -35 16 -58 41 -9 9 -22 17 -29
17 -7 0 -13 4 -13 8 0 9 -62 47 -72 44 -5 -1 -8 4 -8 11 0 8 -4 7 -10 -3 -8
-13 -10 -12 -10 4 0 12 -5 16 -15 13 -8 -4 -17 -2 -20 4 -4 5 -11 7 -16 4 -5
-4 -9 -1 -9 5 0 7 -6 10 -12 7 -7 -2 -22 3 -32 12 -11 9 -16 11 -13 4 5 -8 1
-8 -17 0 -13 6 -22 17 -19 23 2 7 -1 15 -6 19 -6 3 -9 11 -6 16 4 5 1 9 -6 9
-7 0 -9 3 -6 7 4 3 2 12 -4 20 -9 10 -8 13 0 13 8 0 7 7 -3 22 -9 12 -16 33
-16 45 0 13 -5 23 -11 23 -5 0 -8 4 -4 9 3 5 1 12 -5 16 -6 4 -8 11 -5 16 4 5
1 9 -5 9 -6 0 -8 5 -5 10 3 6 1 10 -5 10 -7 0 -10 7 -6 15 3 8 1 15 -5 15 -6
0 -7 5 -4 10 3 6 1 10 -5 10 -7 0 -10 7 -6 15 3 8 1 15 -4 15 -6 0 -10 5 -10
10 0 6 -8 19 -17 29 -35 38 -42 49 -35 55 3 4 -2 4 -11 0 -10 -3 -17 -3 -16 2
4 15 -13 44 -25 44 -6 0 -20 13 -31 29 -10 16 -23 27 -27 25 -5 -3 -11 2 -14
10 -3 9 -10 13 -15 10 -5 -3 -9 2 -9 11 0 9 -4 14 -9 11 -5 -3 -14 1 -21 9 -7
8 -16 12 -21 9 -5 -3 -9 0 -9 6 0 6 -4 9 -9 6 -5 -3 -12 1 -15 10 -3 8 -10 12
-16 9 -5 -3 -10 -1 -10 5 0 6 -4 8 -10 5 -5 -3 -10 0 -10 7 0 10 -2 10 -9 -1
-6 -9 -11 -10 -15 -2 -4 6 -12 9 -17 6 -5 -4 -9 -1 -9 4 0 6 -12 11 -27 12
-16 0 -37 4 -48 8 -11 5 -25 4 -32 -1 -9 -7 -13 -7 -13 1 0 7 -4 9 -10 6 -5
-3 -10 -2 -10 2 0 5 -44 7 -97 6 -68 -2 -100 1 -105 10 -6 9 -8 8 -8 -3 0 -13
-2 -13 -9 -1 -6 9 -26 14 -55 14 -29 -1 -46 3 -46 10 0 8 -3 7 -9 -2 -6 -10
-10 -10 -16 -1 -6 9 -9 9 -15 -1 -6 -9 -12 -10 -22 -2 -21 16 -58 23 -58 10 0
-7 -5 -5 -10 3 -8 12 -10 12 -10 1 0 -10 -3 -11 -13 -2 -8 6 -17 8 -20 4 -4
-3 -7 -1 -7 6 0 8 -5 9 -19 1 -14 -7 -21 -6 -24 3 -4 8 -6 8 -6 1z"/>
</g>
</svg>
